<?xml version="1.0" encoding="UTF-8" standalone="no"?>
<!DOCTYPE svg PUBLIC "-//W3C//DTD SVG 1.1//EN"
 "http://www.w3.org/Graphics/SVG/1.1/DTD/svg11.dtd">
<!-- Generated by graphviz version 15.0.0 (20260523.1842)
 -->
<!-- Pages: 1 -->
<svg width="747pt" height="188pt"
 viewBox="0.00 0.00 747.00 188.00" xmlns="http://www.w3.org/2000/svg" xmlns:xlink="http://www.w3.org/1999/xlink">
<g id="graph0" class="graph" transform="scale(1 1) rotate(0) translate(4 184)">
<polygon fill="white" stroke="none" points="-4,4 -4,-184 742.64,-184 742.64,4 -4,4"/>
<!-- 1 -->
<g id="node1" class="node">
<title>1</title>
<ellipse fill="none" stroke="black" cx="251.98" cy="-162" rx="27" ry="18"/>
<text xml:space="preserve" text-anchor="middle" x="251.98" y="-156.95" font-family="Times,serif" font-size="14.00">1</text>
</g>
<!-- sms -->
<g id="node2" class="node">
<title>sms</title>
<ellipse fill="none" stroke="black" cx="218.98" cy="-90" rx="27" ry="18"/>
<text xml:space="preserve" text-anchor="middle" x="218.98" y="-84.95" font-family="Times,serif" font-size="14.00">sms</text>
</g>
<!-- 1&#45;&gt;sms -->
<g id="edge1" class="edge">
<title>1&#45;&gt;sms</title>
<path fill="none" stroke="black" d="M244.16,-144.41C240.42,-136.48 235.85,-126.78 231.63,-117.84"/>
<polygon fill="black" stroke="black" points="234.82,-116.39 227.39,-108.84 228.49,-119.38 234.82,-116.39"/>
</g>
<!-- email -->
<g id="node4" class="node">
<title>email</title>
<ellipse fill="none" stroke="black" cx="325.98" cy="-90" rx="31.9" ry="18"/>
<text xml:space="preserve" text-anchor="middle" x="325.98" y="-84.95" font-family="Times,serif" font-size="14.00">email</text>
</g>
<!-- 1&#45;&gt;email -->
<g id="edge3" class="edge">
<title>1&#45;&gt;email</title>
<path fill="none" stroke="black" d="M266.96,-146.83C276.99,-137.35 290.41,-124.65 301.92,-113.76"/>
<polygon fill="black" stroke="black" points="304.3,-116.32 309.16,-106.91 299.49,-111.24 304.3,-116.32"/>
</g>
<!-- 0123456789 -->
<g id="node3" class="node">
<title>0123456789</title>
<ellipse fill="none" stroke="black" cx="188.98" cy="-18" rx="56.98" ry="18"/>
<text xml:space="preserve" text-anchor="middle" x="188.98" y="-12.95" font-family="Times,serif" font-size="14.00">0123456789</text>
</g>
<!-- sms&#45;&gt;0123456789 -->
<g id="edge2" class="edge">
<title>sms&#45;&gt;0123456789</title>
<path fill="none" stroke="black" d="M211.87,-72.41C208.56,-64.68 204.53,-55.27 200.77,-46.52"/>
<polygon fill="black" stroke="black" points="204,-45.16 196.84,-37.35 197.57,-47.92 204,-45.16"/>
</g>
<!-- 0456789123 -->
<g id="node7" class="node">
<title>0456789123</title>
<ellipse fill="none" stroke="black" cx="56.98" cy="-18" rx="56.98" ry="18"/>
<text xml:space="preserve" text-anchor="middle" x="56.98" y="-12.95" font-family="Times,serif" font-size="14.00">0456789123</text>
</g>
<!-- sms&#45;&gt;0456789123 -->
<g id="edge6" class="edge">
<title>sms&#45;&gt;0456789123</title>
<path fill="none" stroke="black" d="M196.8,-79.41C171.99,-68.7 131.22,-51.08 100.09,-37.63"/>
<polygon fill="black" stroke="black" points="101.48,-34.41 90.91,-33.66 98.7,-40.84 101.48,-34.41"/>
</g>
<!-- foo@bar.com -->
<g id="node5" class="node">
<title>foo@bar.com</title>
<ellipse fill="none" stroke="black" cx="325.98" cy="-18" rx="62.1" ry="18"/>
<text xml:space="preserve" text-anchor="middle" x="325.98" y="-12.95" font-family="Times,serif" font-size="14.00">foo@bar.com</text>
</g>
<!-- email&#45;&gt;foo@bar.com -->
<g id="edge4" class="edge">
<title>email&#45;&gt;foo@bar.com</title>
<path fill="none" stroke="black" d="M325.98,-71.7C325.98,-64.41 325.98,-55.73 325.98,-47.54"/>
<polygon fill="black" stroke="black" points="329.48,-47.62 325.98,-37.62 322.48,-47.62 329.48,-47.62"/>
</g>
<!-- stranger@danger.com -->
<g id="node8" class="node">
<title>stranger@danger.com</title>
<ellipse fill="none" stroke="black" cx="498.98" cy="-18" rx="92.81" ry="18"/>
<text xml:space="preserve" text-anchor="middle" x="498.98" y="-12.95" font-family="Times,serif" font-size="14.00">stranger@danger.com</text>
</g>
<!-- email&#45;&gt;stranger@danger.com -->
<g id="edge8" class="edge">
<title>email&#45;&gt;stranger@danger.com</title>
<path fill="none" stroke="black" d="M351.51,-78.67C377.26,-68.25 417.69,-51.89 449.71,-38.94"/>
<polygon fill="black" stroke="black" points="450.85,-42.25 458.81,-35.25 448.23,-35.76 450.85,-42.25"/>
</g>
<!-- xxx@zzz.com -->
<g id="node9" class="node">
<title>xxx@zzz.com</title>
<ellipse fill="none" stroke="black" cx="673.98" cy="-18" rx="64.66" ry="18"/>
<text xml:space="preserve" text-anchor="middle" x="673.98" y="-12.95" font-family="Times,serif" font-size="14.00">xxx@zzz.com</text>
</g>
<!-- email&#45;&gt;xxx@zzz.com -->
<g id="edge10" class="edge">
<title>email&#45;&gt;xxx@zzz.com</title>
<path fill="none" stroke="black" d="M356.17,-83.57C406.87,-74.37 512.29,-54.87 600.98,-36 605.56,-35.03 610.3,-33.99 615.06,-32.93"/>
<polygon fill="black" stroke="black" points="615.68,-36.38 624.66,-30.75 614.13,-29.55 615.68,-36.38"/>
</g>
<!-- 2 -->
<g id="node6" class="node">
<title>2</title>
<ellipse fill="none" stroke="black" cx="325.98" cy="-162" rx="27" ry="18"/>
<text xml:space="preserve" text-anchor="middle" x="325.98" y="-156.95" font-family="Times,serif" font-size="14.00">2</text>
</g>
<!-- 2&#45;&gt;sms -->
<g id="edge5" class="edge">
<title>2&#45;&gt;sms</title>
<path fill="none" stroke="black" d="M307.34,-148.81C290.8,-137.98 266.37,-122 247.39,-109.59"/>
<polygon fill="black" stroke="black" points="249.32,-106.66 239.03,-104.12 245.48,-112.52 249.32,-106.66"/>
</g>
<!-- 2&#45;&gt;email -->
<g id="edge7" class="edge">
<title>2&#45;&gt;email</title>
<path fill="none" stroke="black" d="M320.1,-144.05C319.31,-136.57 319.06,-127.58 319.35,-119.14"/>
<polygon fill="black" stroke="black" points="322.83,-119.51 320.02,-109.3 315.85,-119.04 322.83,-119.51"/>
</g>
<!-- 2&#45;&gt;email -->
<g id="edge9" class="edge">
<title>2&#45;&gt;email</title>
<path fill="none" stroke="black" d="M331.86,-144.05C332.65,-136.57 332.91,-127.58 332.61,-119.14"/>
<polygon fill="black" stroke="black" points="336.12,-119.04 331.95,-109.3 329.13,-119.51 336.12,-119.04"/>
</g>
</g>
</svg>
