<?xml version="1.0" encoding="UTF-8" standalone="no"?>
<!DOCTYPE svg PUBLIC "-//W3C//DTD SVG 1.1//EN"
 "http://www.w3.org/Graphics/SVG/1.1/DTD/svg11.dtd">
<!-- Generated by graphviz version 15.0.0 (20260523.1842)
 -->
<!-- Pages: 1 -->
<svg width="1168pt" height="284pt"
 viewBox="0.00 0.00 1168.00 284.00" xmlns="http://www.w3.org/2000/svg" xmlns:xlink="http://www.w3.org/1999/xlink">
<g id="graph0" class="graph" transform="scale(1 1) rotate(0) translate(4 279.52)">
<polygon fill="white" stroke="none" points="-4,4 -4,-279.52 1164.48,-279.52 1164.48,4 -4,4"/>
<!-- root -->
<g id="node1" class="node">
<title>root</title>
<ellipse fill="lightblue" stroke="black" cx="656.82" cy="-245.76" rx="25.76" ry="25.76"/>
<ellipse fill="none" stroke="black" cx="656.82" cy="-245.76" rx="29.76" ry="29.76"/>
<text xml:space="preserve" text-anchor="middle" x="656.82" y="-240.71" font-family="Times,serif" font-size="14.00">root</text>
</g>
<!-- 1 -->
<g id="node10" class="node">
<title>1</title>
<ellipse fill="none" stroke="black" cx="495.82" cy="-162" rx="27" ry="18"/>
<text xml:space="preserve" text-anchor="middle" x="495.82" y="-156.95" font-family="Times,serif" font-size="14.00">1</text>
</g>
<!-- root&#45;&gt;1 -->
<g id="edge1" class="edge">
<title>root&#45;&gt;1</title>
<path fill="none" stroke="blue" stroke-width="2" d="M630.6,-231.44C602.72,-217.28 558.58,-194.87 528.47,-179.58"/>
<polygon fill="blue" stroke="blue" stroke-width="2" points="530.1,-176.48 519.6,-175.07 526.93,-182.72 530.1,-176.48"/>
</g>
<!-- 2 -->
<g id="node11" class="node">
<title>2</title>
<ellipse fill="none" stroke="black" cx="737.82" cy="-162" rx="27" ry="18"/>
<text xml:space="preserve" text-anchor="middle" x="737.82" y="-156.95" font-family="Times,serif" font-size="14.00">2</text>
</g>
<!-- root&#45;&gt;2 -->
<g id="edge2" class="edge">
<title>root&#45;&gt;2</title>
<path fill="none" stroke="black" d="M677.26,-224.13C688.92,-212.37 703.53,-197.61 715.49,-185.55"/>
<polygon fill="black" stroke="black" points="717.65,-188.34 722.2,-178.77 712.68,-183.41 717.65,-188.34"/>
</g>
<!-- sms1 -->
<g id="node2" class="node">
<title>sms1</title>
<ellipse fill="red" stroke="black" cx="233.82" cy="-90" rx="27" ry="18"/>
<text xml:space="preserve" text-anchor="middle" x="233.82" y="-84.95" font-family="Times,serif" font-size="14.00">sms</text>
</g>
<!-- phone1 -->
<g id="node8" class="node">
<title>phone1</title>
<ellipse fill="red" stroke="black" cx="71.82" cy="-18" rx="71.82" ry="18"/>
<text xml:space="preserve" text-anchor="middle" x="71.82" y="-12.95" font-family="Times,serif" font-size="14.00">+490123456789</text>
</g>
<!-- sms1&#45;&gt;phone1 -->
<g id="edge4" class="edge">
<title>sms1&#45;&gt;phone1</title>
<path fill="none" stroke="black" d="M211.64,-79.41C187.45,-68.96 148.09,-51.95 117.28,-38.64"/>
<polygon fill="black" stroke="black" points="118.74,-35.46 108.17,-34.71 115.96,-41.89 118.74,-35.46"/>
</g>
<!-- phone2 -->
<g id="node9" class="node">
<title>phone2</title>
<ellipse fill="red" stroke="black" cx="233.82" cy="-18" rx="71.82" ry="18"/>
<text xml:space="preserve" text-anchor="middle" x="233.82" y="-12.95" font-family="Times,serif" font-size="14.00">+420111222333</text>
</g>
<!-- sms1&#45;&gt;phone2 -->
<g id="edge7" class="edge">
<title>sms1&#45;&gt;phone2</title>
<path fill="none" stroke="black" d="M233.82,-71.7C233.82,-64.41 233.82,-55.73 233.82,-47.54"/>
<polygon fill="black" stroke="black" points="237.32,-47.62 233.82,-37.62 230.32,-47.62 237.32,-47.62"/>
</g>
<!-- email1 -->
<g id="node3" class="node">
<title>email1</title>
<ellipse fill="red" stroke="black" cx="495.82" cy="-90" rx="31.9" ry="18"/>
<text xml:space="preserve" text-anchor="middle" x="495.82" y="-84.95" font-family="Times,serif" font-size="14.00">email</text>
</g>
<!-- zzzaccounting -->
<g id="node6" class="node">
<title>zzzaccounting</title>
<ellipse fill="red" stroke="black" cx="414.82" cy="-18" rx="91.27" ry="18"/>
<text xml:space="preserve" text-anchor="middle" x="414.82" y="-12.95" font-family="Times,serif" font-size="14.00">zzz@accounting.com</text>
</g>
<!-- email1&#45;&gt;zzzaccounting -->
<g id="edge8" class="edge">
<title>email1&#45;&gt;zzzaccounting</title>
<path fill="none" stroke="black" d="M479.04,-74.5C468.6,-65.47 454.91,-53.64 442.86,-43.23"/>
<polygon fill="black" stroke="black" points="445.44,-40.83 435.58,-36.94 440.86,-46.13 445.44,-40.83"/>
</g>
<!-- foobar -->
<g id="node7" class="node">
<title>foobar</title>
<ellipse fill="red" stroke="black" cx="585.82" cy="-18" rx="62.1" ry="18"/>
<text xml:space="preserve" text-anchor="middle" x="585.82" y="-12.95" font-family="Times,serif" font-size="14.00">foo@bar.com</text>
</g>
<!-- email1&#45;&gt;foobar -->
<g id="edge6" class="edge">
<title>email1&#45;&gt;foobar</title>
<path fill="none" stroke="black" d="M514.04,-74.83C526.09,-65.46 542.17,-52.96 556.05,-42.15"/>
<polygon fill="black" stroke="black" points="557.86,-45.19 563.6,-36.28 553.56,-39.66 557.86,-45.19"/>
</g>
<!-- sms2 -->
<g id="node4" class="node">
<title>sms2</title>
<ellipse fill="none" stroke="black" cx="737.82" cy="-90" rx="27" ry="18"/>
<text xml:space="preserve" text-anchor="middle" x="737.82" y="-84.95" font-family="Times,serif" font-size="14.00">sms</text>
</g>
<!-- +330456789123 -->
<g id="node12" class="node">
<title>+330456789123</title>
<ellipse fill="none" stroke="black" cx="737.82" cy="-18" rx="71.82" ry="18"/>
<text xml:space="preserve" text-anchor="middle" x="737.82" y="-12.95" font-family="Times,serif" font-size="14.00">+330456789123</text>
</g>
<!-- sms2&#45;&gt;+330456789123 -->
<g id="edge10" class="edge">
<title>sms2&#45;&gt;+330456789123</title>
<path fill="none" stroke="black" d="M737.82,-71.7C737.82,-64.41 737.82,-55.73 737.82,-47.54"/>
<polygon fill="black" stroke="black" points="741.32,-47.62 737.82,-37.62 734.32,-47.62 741.32,-47.62"/>
</g>
<!-- email2 -->
<g id="node5" class="node">
<title>email2</title>
<ellipse fill="none" stroke="black" cx="920.82" cy="-90" rx="31.9" ry="18"/>
<text xml:space="preserve" text-anchor="middle" x="920.82" y="-84.95" font-family="Times,serif" font-size="14.00">email</text>
</g>
<!-- stranger@danger.com -->
<g id="node13" class="node">
<title>stranger@danger.com</title>
<ellipse fill="none" stroke="black" cx="920.82" cy="-18" rx="92.81" ry="18"/>
<text xml:space="preserve" text-anchor="middle" x="920.82" y="-12.95" font-family="Times,serif" font-size="14.00">stranger@danger.com</text>
</g>
<!-- email2&#45;&gt;stranger@danger.com -->
<g id="edge12" class="edge">
<title>email2&#45;&gt;stranger@danger.com</title>
<path fill="none" stroke="black" d="M920.82,-71.7C920.82,-64.41 920.82,-55.73 920.82,-47.54"/>
<polygon fill="black" stroke="black" points="924.32,-47.62 920.82,-37.62 917.32,-47.62 924.32,-47.62"/>
</g>
<!-- xxx@zzz.com -->
<g id="node14" class="node">
<title>xxx@zzz.com</title>
<ellipse fill="none" stroke="black" cx="1095.82" cy="-18" rx="64.66" ry="18"/>
<text xml:space="preserve" text-anchor="middle" x="1095.82" y="-12.95" font-family="Times,serif" font-size="14.00">xxx@zzz.com</text>
</g>
<!-- email2&#45;&gt;xxx@zzz.com -->
<g id="edge13" class="edge">
<title>email2&#45;&gt;xxx@zzz.com</title>
<path fill="none" stroke="black" d="M946.27,-78.82C973.3,-68.01 1016.61,-50.69 1049.68,-37.46"/>
<polygon fill="black" stroke="black" points="1050.63,-40.85 1058.62,-33.88 1048.03,-34.35 1050.63,-40.85"/>
</g>
<!-- 1&#45;&gt;sms1 -->
<g id="edge3" class="edge">
<title>1&#45;&gt;sms1</title>
<path fill="none" stroke="black" d="M471.18,-154.41C424.65,-141.99 323.74,-115.02 269.7,-100.58"/>
<polygon fill="black" stroke="black" points="270.62,-97.21 260.06,-98.01 268.82,-103.97 270.62,-97.21"/>
</g>
<!-- 1&#45;&gt;email1 -->
<g id="edge5" class="edge">
<title>1&#45;&gt;email1</title>
<path fill="none" stroke="black" d="M495.82,-143.7C495.82,-136.41 495.82,-127.73 495.82,-119.54"/>
<polygon fill="black" stroke="black" points="499.32,-119.62 495.82,-109.62 492.32,-119.62 499.32,-119.62"/>
</g>
<!-- 2&#45;&gt;sms2 -->
<g id="edge9" class="edge">
<title>2&#45;&gt;sms2</title>
<path fill="none" stroke="black" d="M737.82,-143.7C737.82,-136.41 737.82,-127.73 737.82,-119.54"/>
<polygon fill="black" stroke="black" points="741.32,-119.62 737.82,-109.62 734.32,-119.62 741.32,-119.62"/>
</g>
<!-- 2&#45;&gt;email2 -->
<g id="edge11" class="edge">
<title>2&#45;&gt;email2</title>
<path fill="none" stroke="black" d="M761,-152.13C792.03,-140.27 847.41,-119.08 884.14,-105.03"/>
<polygon fill="black" stroke="black" points="885.39,-108.3 893.48,-101.46 882.89,-101.76 885.39,-108.3"/>
</g>
</g>
</svg>
