<?xml version="1.0" encoding="UTF-8" standalone="no"?>
<!DOCTYPE svg PUBLIC "-//W3C//DTD SVG 1.1//EN"
 "http://www.w3.org/Graphics/SVG/1.1/DTD/svg11.dtd">
<!-- Generated by graphviz version 15.0.0 (20260523.1842)
 -->
<!-- Pages: 1 -->
<svg width="1168pt" height="284pt"
 viewBox="0.00 0.00 1168.00 284.00" xmlns="http://www.w3.org/2000/svg" xmlns:xlink="http://www.w3.org/1999/xlink">
<g id="graph0" class="graph" transform="scale(1 1) rotate(0) translate(4 279.52)">
<polygon fill="white" stroke="none" points="-4,4 -4,-279.52 1164.48,-279.52 1164.48,4 -4,4"/>
<!-- root -->
<g id="node1" class="node">
<title>root</title>
<ellipse fill="lightblue" stroke="black" cx="646.82" cy="-245.76" rx="25.76" ry="25.76"/>
<ellipse fill="none" stroke="black" cx="646.82" cy="-245.76" rx="29.76" ry="29.76"/>
<text xml:space="preserve" text-anchor="middle" x="646.82" y="-240.71" font-family="Times,serif" font-size="14.00">root</text>
</g>
<!-- 1 -->
<g id="node6" class="node">
<title>1</title>
<ellipse fill="none" stroke="black" cx="470.82" cy="-162" rx="27" ry="18"/>
<text xml:space="preserve" text-anchor="middle" x="470.82" y="-156.95" font-family="Times,serif" font-size="14.00">1</text>
</g>
<!-- root&#45;&gt;1 -->
<g id="edge1" class="edge">
<title>root&#45;&gt;1</title>
<path fill="none" stroke="blue" stroke-width="2" d="M620.09,-232.34C589,-217.9 537.66,-194.05 504.04,-178.43"/>
<polygon fill="blue" stroke="blue" stroke-width="2" points="505.81,-175.39 495.27,-174.36 502.86,-181.74 505.81,-175.39"/>
</g>
<!-- 2 -->
<g id="node7" class="node">
<title>2</title>
<ellipse fill="none" stroke="black" cx="737.82" cy="-162" rx="27" ry="18"/>
<text xml:space="preserve" text-anchor="middle" x="737.82" y="-156.95" font-family="Times,serif" font-size="14.00">2</text>
</g>
<!-- root&#45;&gt;2 -->
<g id="edge2" class="edge">
<title>root&#45;&gt;2</title>
<path fill="none" stroke="black" d="M668.39,-225.38C682.06,-213.11 699.75,-197.21 713.86,-184.53"/>
<polygon fill="black" stroke="black" points="715.88,-187.42 720.98,-178.13 711.2,-182.21 715.88,-187.42"/>
</g>
<!-- sms1 -->
<g id="node2" class="node">
<title>sms1</title>
<ellipse fill="none" stroke="black" cx="233.82" cy="-90" rx="27" ry="18"/>
<text xml:space="preserve" text-anchor="middle" x="233.82" y="-84.95" font-family="Times,serif" font-size="14.00">sms</text>
</g>
<!-- +490123456789 -->
<g id="node8" class="node">
<title>+490123456789</title>
<ellipse fill="none" stroke="black" cx="71.82" cy="-18" rx="71.82" ry="18"/>
<text xml:space="preserve" text-anchor="middle" x="71.82" y="-12.95" font-family="Times,serif" font-size="14.00">+490123456789</text>
</g>
<!-- sms1&#45;&gt;+490123456789 -->
<g id="edge4" class="edge">
<title>sms1&#45;&gt;+490123456789</title>
<path fill="none" stroke="black" d="M211.64,-79.41C187.45,-68.96 148.09,-51.95 117.28,-38.64"/>
<polygon fill="black" stroke="black" points="118.74,-35.46 108.17,-34.71 115.96,-41.89 118.74,-35.46"/>
</g>
<!-- +420111222333 -->
<g id="node10" class="node">
<title>+420111222333</title>
<ellipse fill="none" stroke="black" cx="233.82" cy="-18" rx="71.82" ry="18"/>
<text xml:space="preserve" text-anchor="middle" x="233.82" y="-12.95" font-family="Times,serif" font-size="14.00">+420111222333</text>
</g>
<!-- sms1&#45;&gt;+420111222333 -->
<g id="edge7" class="edge">
<title>sms1&#45;&gt;+420111222333</title>
<path fill="none" stroke="black" d="M233.82,-71.7C233.82,-64.41 233.82,-55.73 233.82,-47.54"/>
<polygon fill="black" stroke="black" points="237.32,-47.62 233.82,-37.62 230.32,-47.62 237.32,-47.62"/>
</g>
<!-- email1 -->
<g id="node3" class="node">
<title>email1</title>
<ellipse fill="none" stroke="black" cx="470.82" cy="-90" rx="31.9" ry="18"/>
<text xml:space="preserve" text-anchor="middle" x="470.82" y="-84.95" font-family="Times,serif" font-size="14.00">email</text>
</g>
<!-- foo@bar.com -->
<g id="node9" class="node">
<title>foo@bar.com</title>
<ellipse fill="none" stroke="black" cx="385.82" cy="-18" rx="62.1" ry="18"/>
<text xml:space="preserve" text-anchor="middle" x="385.82" y="-12.95" font-family="Times,serif" font-size="14.00">foo@bar.com</text>
</g>
<!-- email1&#45;&gt;foo@bar.com -->
<g id="edge6" class="edge">
<title>email1&#45;&gt;foo@bar.com</title>
<path fill="none" stroke="black" d="M453.21,-74.5C441.99,-65.26 427.2,-53.07 414.33,-42.47"/>
<polygon fill="black" stroke="black" points="416.91,-40.07 406.96,-36.41 412.46,-45.47 416.91,-40.07"/>
</g>
<!-- zzz@accounting.com -->
<g id="node11" class="node">
<title>zzz@accounting.com</title>
<ellipse fill="none" stroke="black" cx="556.82" cy="-18" rx="91.27" ry="18"/>
<text xml:space="preserve" text-anchor="middle" x="556.82" y="-12.95" font-family="Times,serif" font-size="14.00">zzz@accounting.com</text>
</g>
<!-- email1&#45;&gt;zzz@accounting.com -->
<g id="edge8" class="edge">
<title>email1&#45;&gt;zzz@accounting.com</title>
<path fill="none" stroke="black" d="M488.23,-74.83C499.47,-65.68 514.39,-53.54 527.44,-42.92"/>
<polygon fill="black" stroke="black" points="529.39,-45.84 534.94,-36.81 524.97,-40.41 529.39,-45.84"/>
</g>
<!-- sms2 -->
<g id="node4" class="node">
<title>sms2</title>
<ellipse fill="none" stroke="black" cx="737.82" cy="-90" rx="27" ry="18"/>
<text xml:space="preserve" text-anchor="middle" x="737.82" y="-84.95" font-family="Times,serif" font-size="14.00">sms</text>
</g>
<!-- +330456789123 -->
<g id="node12" class="node">
<title>+330456789123</title>
<ellipse fill="none" stroke="black" cx="737.82" cy="-18" rx="71.82" ry="18"/>
<text xml:space="preserve" text-anchor="middle" x="737.82" y="-12.95" font-family="Times,serif" font-size="14.00">+330456789123</text>
</g>
<!-- sms2&#45;&gt;+330456789123 -->
<g id="edge10" class="edge">
<title>sms2&#45;&gt;+330456789123</title>
<path fill="none" stroke="black" d="M737.82,-71.7C737.82,-64.41 737.82,-55.73 737.82,-47.54"/>
<polygon fill="black" stroke="black" points="741.32,-47.62 737.82,-37.62 734.32,-47.62 741.32,-47.62"/>
</g>
<!-- email2 -->
<g id="node5" class="node">
<title>email2</title>
<ellipse fill="none" stroke="black" cx="920.82" cy="-90" rx="31.9" ry="18"/>
<text xml:space="preserve" text-anchor="middle" x="920.82" y="-84.95" font-family="Times,serif" font-size="14.00">email</text>
</g>
<!-- stranger@danger.com -->
<g id="node13" class="node">
<title>stranger@danger.com</title>
<ellipse fill="none" stroke="black" cx="920.82" cy="-18" rx="92.81" ry="18"/>
<text xml:space="preserve" text-anchor="middle" x="920.82" y="-12.95" font-family="Times,serif" font-size="14.00">stranger@danger.com</text>
</g>
<!-- email2&#45;&gt;stranger@danger.com -->
<g id="edge12" class="edge">
<title>email2&#45;&gt;stranger@danger.com</title>
<path fill="none" stroke="black" d="M920.82,-71.7C920.82,-64.41 920.82,-55.73 920.82,-47.54"/>
<polygon fill="black" stroke="black" points="924.32,-47.62 920.82,-37.62 917.32,-47.62 924.32,-47.62"/>
</g>
<!-- xxx@zzz.com -->
<g id="node14" class="node">
<title>xxx@zzz.com</title>
<ellipse fill="none" stroke="black" cx="1095.82" cy="-18" rx="64.66" ry="18"/>
<text xml:space="preserve" text-anchor="middle" x="1095.82" y="-12.95" font-family="Times,serif" font-size="14.00">xxx@zzz.com</text>
</g>
<!-- email2&#45;&gt;xxx@zzz.com -->
<g id="edge13" class="edge">
<title>email2&#45;&gt;xxx@zzz.com</title>
<path fill="none" stroke="black" d="M946.27,-78.82C973.3,-68.01 1016.61,-50.69 1049.68,-37.46"/>
<polygon fill="black" stroke="black" points="1050.63,-40.85 1058.62,-33.88 1048.03,-34.35 1050.63,-40.85"/>
</g>
<!-- 1&#45;&gt;sms1 -->
<g id="edge3" class="edge">
<title>1&#45;&gt;sms1</title>
<path fill="none" stroke="black" d="M446.35,-153.77C404.2,-141.32 317.74,-115.79 269.09,-101.42"/>
<polygon fill="black" stroke="black" points="270.19,-98.09 259.61,-98.62 268.21,-104.81 270.19,-98.09"/>
</g>
<!-- 1&#45;&gt;email1 -->
<g id="edge5" class="edge">
<title>1&#45;&gt;email1</title>
<path fill="none" stroke="black" d="M470.82,-143.7C470.82,-136.41 470.82,-127.73 470.82,-119.54"/>
<polygon fill="black" stroke="black" points="474.32,-119.62 470.82,-109.62 467.32,-119.62 474.32,-119.62"/>
</g>
<!-- 2&#45;&gt;sms2 -->
<g id="edge9" class="edge">
<title>2&#45;&gt;sms2</title>
<path fill="none" stroke="black" d="M737.82,-143.7C737.82,-136.41 737.82,-127.73 737.82,-119.54"/>
<polygon fill="black" stroke="black" points="741.32,-119.62 737.82,-109.62 734.32,-119.62 741.32,-119.62"/>
</g>
<!-- 2&#45;&gt;email2 -->
<g id="edge11" class="edge">
<title>2&#45;&gt;email2</title>
<path fill="none" stroke="black" d="M761,-152.13C792.03,-140.27 847.41,-119.08 884.14,-105.03"/>
<polygon fill="black" stroke="black" points="885.39,-108.3 893.48,-101.46 882.89,-101.76 885.39,-108.3"/>
</g>
</g>
</svg>
