<?xml version="1.0" encoding="UTF-8" standalone="no"?>
<!DOCTYPE svg PUBLIC "-//W3C//DTD SVG 1.1//EN"
 "http://www.w3.org/Graphics/SVG/1.1/DTD/svg11.dtd">
<!-- Generated by graphviz version 2.43.0 (0)
 -->
<!-- Title: %3 Pages: 1 -->
<svg width="351pt" height="188pt"
 viewBox="0.00 0.00 351.18 188.00" xmlns="http://www.w3.org/2000/svg" xmlns:xlink="http://www.w3.org/1999/xlink">
<g id="graph0" class="graph" transform="scale(1 1) rotate(0) translate(4 184)">
<title>%3</title>
<polygon fill="white" stroke="transparent" points="-4,4 -4,-184 347.18,-184 347.18,4 -4,4"/>
<!-- ceo -->
<g id="node1" class="node">
<title>ceo</title>
<ellipse fill="none" stroke="black" cx="128.19" cy="-18" rx="61.99" ry="18"/>
<text text-anchor="middle" x="128.19" y="-14.3" font-family="Times,serif" font-size="14.00">Ellen, CEO</text>
</g>
<!-- cfo -->
<g id="node2" class="node">
<title>cfo</title>
<ellipse fill="none" stroke="black" cx="57.19" cy="-90" rx="57.39" ry="18"/>
<text text-anchor="middle" x="57.19" y="-86.3" font-family="Times,serif" font-size="14.00">Jane, CFO</text>
</g>
<!-- cfo&#45;&gt;ceo -->
<g id="edge2" class="edge">
<title>cfo&#45;&gt;ceo</title>
<path fill="none" stroke="black" d="M74.02,-72.41C83.04,-63.52 94.31,-52.41 104.23,-42.63"/>
<polygon fill="black" stroke="black" points="106.83,-44.98 111.49,-35.47 101.91,-40 106.83,-44.98"/>
</g>
<!-- cto -->
<g id="node3" class="node">
<title>cto</title>
<ellipse fill="none" stroke="black" cx="200.19" cy="-90" rx="68.49" ry="18"/>
<text text-anchor="middle" x="200.19" y="-86.3" font-family="Times,serif" font-size="14.00">Angela, CTO</text>
</g>
<!-- cto&#45;&gt;ceo -->
<g id="edge1" class="edge">
<title>cto&#45;&gt;ceo</title>
<path fill="none" stroke="black" d="M183.13,-72.41C173.99,-63.52 162.56,-52.41 152.5,-42.63"/>
<polygon fill="black" stroke="black" points="154.75,-39.93 145.14,-35.47 149.87,-44.95 154.75,-39.93"/>
</g>
<!-- engineer_2 -->
<g id="node4" class="node">
<title>engineer_2</title>
<ellipse fill="turquoise" stroke="black" cx="200.19" cy="-162" rx="142.97" ry="18"/>
<text text-anchor="middle" x="200.19" y="-158.3" font-family="Times,serif" font-size="14.00">Miranda, Software Engineer</text>
</g>
<!-- engineer_2&#45;&gt;cto -->
<g id="edge3" class="edge">
<title>engineer_2&#45;&gt;cto</title>
<path fill="none" stroke="black" d="M200.19,-143.7C200.19,-135.98 200.19,-126.71 200.19,-118.11"/>
<polygon fill="black" stroke="black" points="203.7,-118.1 200.19,-108.1 196.7,-118.1 203.7,-118.1"/>
</g>
</g>
</svg>
