<?xml version="1.0" encoding="UTF-8" standalone="no"?>
<!DOCTYPE svg PUBLIC "-//W3C//DTD SVG 1.1//EN"
 "http://www.w3.org/Graphics/SVG/1.1/DTD/svg11.dtd">
<!-- Generated by graphviz version 2.43.0 (0)
 -->
<!-- Title: %3 Pages: 1 -->
<svg width="566pt" height="204pt"
 viewBox="0.00 0.00 566.38 204.00" xmlns="http://www.w3.org/2000/svg" xmlns:xlink="http://www.w3.org/1999/xlink">
<g id="graph0" class="graph" transform="scale(1 1) rotate(0) translate(4 200)">
<title>%3</title>
<polygon fill="white" stroke="transparent" points="-4,4 -4,-200 562.38,-200 562.38,4 -4,4"/>
<!-- ceo -->
<g id="node1" class="node">
<title>ceo</title>
<ellipse fill="none" stroke="black" cx="170.39" cy="-18" rx="61.99" ry="18"/>
<text text-anchor="middle" x="170.39" y="-14.3" font-family="Times,serif" font-size="14.00">Ellen, CEO</text>
</g>
<!-- cfo -->
<g id="node2" class="node">
<title>cfo</title>
<ellipse fill="none" stroke="black" cx="128.39" cy="-91" rx="57.39" ry="18"/>
<text text-anchor="middle" x="128.39" y="-87.3" font-family="Times,serif" font-size="14.00">Jane, CFO</text>
</g>
<!-- cfo&#45;&gt;ceo -->
<g id="edge2" class="edge">
<title>cfo&#45;&gt;ceo</title>
<path fill="none" stroke="black" d="M138.34,-73.17C143.34,-64.72 149.51,-54.29 155.1,-44.85"/>
<polygon fill="black" stroke="black" points="158.14,-46.59 160.21,-36.2 152.11,-43.02 158.14,-46.59"/>
</g>
<!-- cto -->
<g id="node3" class="node">
<title>cto</title>
<ellipse fill="none" stroke="black" cx="271.39" cy="-91" rx="68.49" ry="18"/>
<text text-anchor="middle" x="271.39" y="-87.3" font-family="Times,serif" font-size="14.00">Angela, CTO</text>
</g>
<!-- cto&#45;&gt;ceo -->
<g id="edge1" class="edge">
<title>cto&#45;&gt;ceo</title>
<path fill="none" stroke="black" d="M248.47,-73.89C234.56,-64.11 216.61,-51.49 201.43,-40.82"/>
<polygon fill="black" stroke="black" points="203.06,-37.69 192.87,-34.8 199.04,-43.42 203.06,-37.69"/>
</g>
<!-- engineer_1 -->
<g id="node4" class="node">
<title>engineer_1</title>
<ellipse fill="turquoise" stroke="black" cx="127.39" cy="-178" rx="127.28" ry="18"/>
<text text-anchor="middle" x="127.39" y="-174.3" font-family="Times,serif" font-size="14.00">Bella, Software Engineer</text>
</g>
<!-- engineer_1&#45;&gt;cto -->
<g id="edge3" class="edge">
<title>engineer_1&#45;&gt;cto</title>
<path fill="none" stroke="gray" stroke-dasharray="1,5" d="M155.5,-160.41C178.53,-146.81 211.26,-127.49 236.06,-112.85"/>
<polygon fill="gray" stroke="gray" points="237.98,-115.79 244.81,-107.69 234.42,-109.76 237.98,-115.79"/>
<text text-anchor="middle" x="241.89" y="-130.8" font-family="Times,serif" font-size="14.00" fill="grey">Removed</text>
</g>
<!-- engineer_2 -->
<g id="node5" class="node">
<title>engineer_2</title>
<ellipse fill="none" stroke="black" cx="415.39" cy="-178" rx="142.97" ry="18"/>
<text text-anchor="middle" x="415.39" y="-174.3" font-family="Times,serif" font-size="14.00">Miranda, Software Engineer</text>
</g>
<!-- engineer_2&#45;&gt;cto -->
<g id="edge4" class="edge">
<title>engineer_2&#45;&gt;cto</title>
<path fill="none" stroke="black" d="M386.94,-160.21C363.87,-146.59 331.25,-127.33 306.55,-112.75"/>
<polygon fill="black" stroke="black" points="308.23,-109.68 297.84,-107.61 304.67,-115.71 308.23,-109.68"/>
</g>
</g>
</svg>
