<?xml version="1.0" encoding="UTF-8" standalone="no"?>
<!DOCTYPE svg PUBLIC "-//W3C//DTD SVG 1.1//EN"
 "http://www.w3.org/Graphics/SVG/1.1/DTD/svg11.dtd">
<!-- Generated by graphviz version 2.43.0 (0)
 -->
<!-- Title: %3 Pages: 1 -->
<svg width="756pt" height="188pt"
 viewBox="0.00 0.00 755.78 188.00" xmlns="http://www.w3.org/2000/svg" xmlns:xlink="http://www.w3.org/1999/xlink">
<g id="graph0" class="graph" transform="scale(1 1) rotate(0) translate(4 184)">
<title>%3</title>
<polygon fill="white" stroke="transparent" points="-4,4 -4,-184 751.78,-184 751.78,4 -4,4"/>
<!-- ceo -->
<g id="node1" class="node">
<title>ceo</title>
<ellipse fill="none" stroke="black" cx="244.79" cy="-18" rx="61.99" ry="18"/>
<text text-anchor="middle" x="244.79" y="-14.3" font-family="Times,serif" font-size="14.00">Ellen, CEO</text>
</g>
<!-- cfo -->
<g id="node2" class="node">
<title>cfo</title>
<ellipse fill="none" stroke="black" cx="129.79" cy="-90" rx="57.39" ry="18"/>
<text text-anchor="middle" x="129.79" y="-86.3" font-family="Times,serif" font-size="14.00">Jane, CFO</text>
</g>
<!-- cfo&#45;&gt;ceo -->
<g id="edge2" class="edge">
<title>cfo&#45;&gt;ceo</title>
<path fill="none" stroke="black" d="M155.03,-73.64C171.24,-63.77 192.52,-50.82 210.29,-40"/>
<polygon fill="black" stroke="black" points="212.49,-42.76 219.22,-34.57 208.85,-36.78 212.49,-42.76"/>
</g>
<!-- cto -->
<g id="node3" class="node">
<title>cto</title>
<ellipse fill="none" stroke="black" cx="316.79" cy="-90" rx="68.49" ry="18"/>
<text text-anchor="middle" x="316.79" y="-86.3" font-family="Times,serif" font-size="14.00">Angela, CTO</text>
</g>
<!-- cto&#45;&gt;ceo -->
<g id="edge1" class="edge">
<title>cto&#45;&gt;ceo</title>
<path fill="none" stroke="black" d="M299.73,-72.41C290.58,-63.52 279.16,-52.41 269.1,-42.63"/>
<polygon fill="black" stroke="black" points="271.34,-39.93 261.73,-35.47 266.46,-44.95 271.34,-39.93"/>
</g>
<!-- engineer_1 -->
<g id="node4" class="node">
<title>engineer_1</title>
<ellipse fill="none" stroke="black" cx="316.79" cy="-162" rx="127.28" ry="18"/>
<text text-anchor="middle" x="316.79" y="-158.3" font-family="Times,serif" font-size="14.00">Bella, Software Engineer</text>
</g>
<!-- engineer_1&#45;&gt;cto -->
<g id="edge3" class="edge">
<title>engineer_1&#45;&gt;cto</title>
<path fill="none" stroke="black" d="M316.79,-143.7C316.79,-135.98 316.79,-126.71 316.79,-118.11"/>
<polygon fill="black" stroke="black" points="320.29,-118.1 316.79,-108.1 313.29,-118.1 320.29,-118.1"/>
</g>
<!-- engineer_2 -->
<g id="node5" class="node">
<title>engineer_2</title>
<ellipse fill="none" stroke="black" cx="604.79" cy="-162" rx="142.97" ry="18"/>
<text text-anchor="middle" x="604.79" y="-158.3" font-family="Times,serif" font-size="14.00">Miranda, Software Engineer</text>
</g>
<!-- engineer_2&#45;&gt;cto -->
<g id="edge4" class="edge">
<title>engineer_2&#45;&gt;cto</title>
<path fill="none" stroke="black" d="M541.95,-145.72C492.34,-133.67 423.67,-116.98 375.25,-105.21"/>
<polygon fill="black" stroke="black" points="375.78,-101.73 365.23,-102.77 374.12,-108.54 375.78,-101.73"/>
</g>
<!-- accountant_1 -->
<g id="node6" class="node">
<title>accountant_1</title>
<ellipse fill="none" stroke="black" cx="85.79" cy="-162" rx="85.59" ry="18"/>
<text text-anchor="middle" x="85.79" y="-158.3" font-family="Times,serif" font-size="14.00">Zoe, Accountant</text>
</g>
<!-- accountant_1&#45;&gt;cfo -->
<g id="edge5" class="edge">
<title>accountant_1&#45;&gt;cfo</title>
<path fill="none" stroke="black" d="M96.44,-144.05C101.63,-135.8 107.98,-125.7 113.74,-116.54"/>
<polygon fill="black" stroke="black" points="116.88,-118.12 119.24,-107.79 110.95,-114.39 116.88,-118.12"/>
</g>
</g>
</svg>
