<?xml version="1.0" encoding="UTF-8" standalone="no"?>
<!DOCTYPE svg PUBLIC "-//W3C//DTD SVG 1.1//EN"
 "http://www.w3.org/Graphics/SVG/1.1/DTD/svg11.dtd">
<!-- Generated by graphviz version 2.43.0 (0)
 -->
<!-- Title: %3 Pages: 1 -->
<svg width="756pt" height="204pt"
 viewBox="0.00 0.00 755.78 204.00" xmlns="http://www.w3.org/2000/svg" xmlns:xlink="http://www.w3.org/1999/xlink">
<g id="graph0" class="graph" transform="scale(1 1) rotate(0) translate(4 200)">
<title>%3</title>
<polygon fill="white" stroke="transparent" points="-4,4 -4,-200 751.78,-200 751.78,4 -4,4"/>
<!-- ceo -->
<g id="node1" class="node">
<title>ceo</title>
<ellipse fill="none" stroke="black" cx="189.79" cy="-18" rx="61.99" ry="18"/>
<text text-anchor="middle" x="189.79" y="-14.3" font-family="Times,serif" font-size="14.00">Ellen, CEO</text>
</g>
<!-- cfo -->
<g id="node2" class="node">
<title>cfo</title>
<ellipse fill="none" stroke="black" cx="118.79" cy="-91" rx="57.39" ry="18"/>
<text text-anchor="middle" x="118.79" y="-87.3" font-family="Times,serif" font-size="14.00">Jane, CFO</text>
</g>
<!-- cfo&#45;&gt;ceo -->
<g id="edge2" class="edge">
<title>cfo&#45;&gt;ceo</title>
<path fill="none" stroke="black" d="M135.26,-73.53C144.49,-64.3 156.16,-52.64 166.33,-42.46"/>
<polygon fill="black" stroke="black" points="168.82,-44.92 173.41,-35.38 163.87,-39.97 168.82,-44.92"/>
</g>
<!-- cto -->
<g id="node3" class="node">
<title>cto</title>
<ellipse fill="none" stroke="black" cx="305.79" cy="-91" rx="68.49" ry="18"/>
<text text-anchor="middle" x="305.79" y="-87.3" font-family="Times,serif" font-size="14.00">Angela, CTO</text>
</g>
<!-- cto&#45;&gt;ceo -->
<g id="edge1" class="edge">
<title>cto&#45;&gt;ceo</title>
<path fill="none" stroke="black" d="M280.05,-74.24C263.56,-64.15 241.98,-50.95 224.06,-39.97"/>
<polygon fill="black" stroke="black" points="225.42,-36.7 215.07,-34.47 221.77,-42.67 225.42,-36.7"/>
</g>
<!-- engineer_1 -->
<g id="node4" class="node">
<title>engineer_1</title>
<ellipse fill="none" stroke="black" cx="316.79" cy="-178" rx="127.28" ry="18"/>
<text text-anchor="middle" x="316.79" y="-174.3" font-family="Times,serif" font-size="14.00">Bella, Software Engineer</text>
</g>
<!-- engineer_1&#45;&gt;cto -->
<g id="edge3" class="edge">
<title>engineer_1&#45;&gt;cto</title>
<path fill="none" stroke="black" d="M314.57,-159.8C313.06,-148.16 311.04,-132.55 309.32,-119.24"/>
<polygon fill="black" stroke="black" points="312.77,-118.64 308.02,-109.18 305.83,-119.54 312.77,-118.64"/>
</g>
<!-- engineer_2 -->
<g id="node5" class="node">
<title>engineer_2</title>
<ellipse fill="none" stroke="black" cx="604.79" cy="-178" rx="142.97" ry="18"/>
<text text-anchor="middle" x="604.79" y="-174.3" font-family="Times,serif" font-size="14.00">Miranda, Software Engineer</text>
</g>
<!-- engineer_2&#45;&gt;cto -->
<g id="edge4" class="edge">
<title>engineer_2&#45;&gt;cto</title>
<path fill="none" stroke="black" d="M549.6,-161.31C495.59,-145.96 413.83,-122.71 360.12,-107.44"/>
<polygon fill="black" stroke="black" points="361,-104.06 350.43,-104.69 359.09,-110.79 361,-104.06"/>
</g>
<!-- accountant_1 -->
<g id="node6" class="node">
<title>accountant_1</title>
<ellipse fill="turquoise" stroke="black" cx="85.79" cy="-178" rx="85.59" ry="18"/>
<text text-anchor="middle" x="85.79" y="-174.3" font-family="Times,serif" font-size="14.00">Zoe, Accountant</text>
</g>
<!-- accountant_1&#45;&gt;cfo -->
<g id="edge5" class="edge">
<title>accountant_1&#45;&gt;cfo</title>
<path fill="none" stroke="gray" stroke-dasharray="1,5" d="M92.47,-159.8C97.06,-147.97 103.25,-132.03 108.47,-118.58"/>
<polygon fill="gray" stroke="gray" points="111.88,-119.47 112.24,-108.89 105.35,-116.94 111.88,-119.47"/>
<text text-anchor="middle" x="138.29" y="-130.8" font-family="Times,serif" font-size="14.00" fill="grey">Removed</text>
</g>
<!-- accountant_1&#45;&gt;cto -->
<g id="edge6" class="edge">
<title>accountant_1&#45;&gt;cto</title>
<path fill="none" stroke="black" d="M124.87,-161.9C162.51,-147.36 219.47,-125.35 259.4,-109.92"/>
<polygon fill="black" stroke="black" points="260.84,-113.12 268.91,-106.25 258.32,-106.59 260.84,-113.12"/>
</g>
</g>
</svg>
