<?xml version="1.0" encoding="UTF-8" standalone="no"?>
<!DOCTYPE svg PUBLIC "-//W3C//DTD SVG 1.1//EN"
 "http://www.w3.org/Graphics/SVG/1.1/DTD/svg11.dtd">
<!-- Generated by graphviz version 2.43.0 (0)
 -->
<!-- Title: %3 Pages: 1 -->
<svg width="351pt" height="204pt"
 viewBox="0.00 0.00 351.18 204.00" xmlns="http://www.w3.org/2000/svg" xmlns:xlink="http://www.w3.org/1999/xlink">
<g id="graph0" class="graph" transform="scale(1 1) rotate(0) translate(4 200)">
<title>%3</title>
<polygon fill="white" stroke="transparent" points="-4,4 -4,-200 347.18,-200 347.18,4 -4,4"/>
<!-- ceo -->
<g id="node1" class="node">
<title>ceo</title>
<ellipse fill="none" stroke="black" cx="99.19" cy="-18" rx="61.99" ry="18"/>
<text text-anchor="middle" x="99.19" y="-14.3" font-family="Times,serif" font-size="14.00">Ellen, CEO</text>
</g>
<!-- cfo -->
<g id="node2" class="node">
<title>cfo</title>
<ellipse fill="none" stroke="black" cx="57.19" cy="-91" rx="57.39" ry="18"/>
<text text-anchor="middle" x="57.19" y="-87.3" font-family="Times,serif" font-size="14.00">Jane, CFO</text>
</g>
<!-- cfo&#45;&gt;ceo -->
<g id="edge2" class="edge">
<title>cfo&#45;&gt;ceo</title>
<path fill="none" stroke="black" d="M67.15,-73.17C72.15,-64.72 78.32,-54.29 83.9,-44.85"/>
<polygon fill="black" stroke="black" points="86.94,-46.59 89.02,-36.2 80.92,-43.02 86.94,-46.59"/>
</g>
<!-- cto -->
<g id="node3" class="node">
<title>cto</title>
<ellipse fill="none" stroke="black" cx="200.19" cy="-91" rx="68.49" ry="18"/>
<text text-anchor="middle" x="200.19" y="-87.3" font-family="Times,serif" font-size="14.00">Angela, CTO</text>
</g>
<!-- cto&#45;&gt;ceo -->
<g id="edge1" class="edge">
<title>cto&#45;&gt;ceo</title>
<path fill="none" stroke="black" d="M177.28,-73.89C163.36,-64.11 145.42,-51.49 130.24,-40.82"/>
<polygon fill="black" stroke="black" points="131.87,-37.69 121.67,-34.8 127.84,-43.42 131.87,-37.69"/>
</g>
<!-- engineer_2 -->
<g id="node4" class="node">
<title>engineer_2</title>
<ellipse fill="turquoise" stroke="black" cx="200.19" cy="-178" rx="142.97" ry="18"/>
<text text-anchor="middle" x="200.19" y="-174.3" font-family="Times,serif" font-size="14.00">Miranda, Software Engineer</text>
</g>
<!-- engineer_2&#45;&gt;cto -->
<g id="edge3" class="edge">
<title>engineer_2&#45;&gt;cto</title>
<path fill="none" stroke="gray" stroke-dasharray="1,5" d="M200.19,-159.8C200.19,-148.16 200.19,-132.55 200.19,-119.24"/>
<polygon fill="gray" stroke="gray" points="203.7,-119.18 200.19,-109.18 196.7,-119.18 203.7,-119.18"/>
<text text-anchor="middle" x="233.69" y="-130.8" font-family="Times,serif" font-size="14.00" fill="grey">Removed</text>
</g>
</g>
</svg>
