<?xml version="1.0" encoding="UTF-8" standalone="no"?>
<!DOCTYPE svg PUBLIC "-//W3C//DTD SVG 1.1//EN"
 "http://www.w3.org/Graphics/SVG/1.1/DTD/svg11.dtd">
<!-- Generated by graphviz version 2.43.0 (0)
 -->
<!-- Title: %3 Pages: 1 -->
<svg width="566pt" height="350pt"
 viewBox="0.00 0.00 566.38 350.00" xmlns="http://www.w3.org/2000/svg" xmlns:xlink="http://www.w3.org/1999/xlink">
<g id="graph0" class="graph" transform="scale(1 1) rotate(0) translate(4 346)">
<title>%3</title>
<polygon fill="white" stroke="transparent" points="-4,4 -4,-346 562.38,-346 562.38,4 -4,4"/>
<!-- ceo -->
<g id="node1" class="node">
<title>ceo</title>
<ellipse fill="none" stroke="black" cx="271.39" cy="-178" rx="61.99" ry="18"/>
<text text-anchor="middle" x="271.39" y="-174.3" font-family="Times,serif" font-size="14.00">Ellen, CEO</text>
</g>
<!-- accountant_1 -->
<g id="node6" class="node">
<title>accountant_1</title>
<ellipse fill="none" stroke="black" cx="214.39" cy="-91" rx="85.59" ry="18"/>
<text text-anchor="middle" x="214.39" y="-87.3" font-family="Times,serif" font-size="14.00">Zoe, Accountant</text>
</g>
<!-- ceo&#45;&gt;accountant_1 -->
<g id="edge6" class="edge">
<title>ceo&#45;&gt;accountant_1</title>
<path fill="none" stroke="red" d="M255.98,-160.5C251.04,-154.84 245.74,-148.33 241.39,-142 236.31,-134.6 231.42,-126.14 227.24,-118.32"/>
<polygon fill="red" stroke="red" points="230.23,-116.47 222.53,-109.19 224.01,-119.68 230.23,-116.47"/>
<text text-anchor="middle" x="277.89" y="-130.8" font-family="Times,serif" font-size="14.00" fill="red">Forbidden</text>
</g>
<!-- cfo -->
<g id="node2" class="node">
<title>cfo</title>
<ellipse fill="none" stroke="black" cx="271.39" cy="-18" rx="57.39" ry="18"/>
<text text-anchor="middle" x="271.39" y="-14.3" font-family="Times,serif" font-size="14.00">Jane, CFO</text>
</g>
<!-- cfo&#45;&gt;ceo -->
<g id="edge2" class="edge">
<title>cfo&#45;&gt;ceo</title>
<path fill="none" stroke="black" d="M286.59,-35.67C294.82,-45.73 304.32,-59.23 309.39,-73 322.98,-109.91 320.16,-129.86 314.39,-142 312.17,-146.66 309,-150.91 305.36,-154.7"/>
<polygon fill="black" stroke="black" points="302.99,-152.13 297.94,-161.45 307.7,-157.31 302.99,-152.13"/>
</g>
<!-- cto -->
<g id="node3" class="node">
<title>cto</title>
<ellipse fill="none" stroke="black" cx="271.39" cy="-251" rx="68.49" ry="18"/>
<text text-anchor="middle" x="271.39" y="-247.3" font-family="Times,serif" font-size="14.00">Angela, CTO</text>
</g>
<!-- cto&#45;&gt;ceo -->
<g id="edge1" class="edge">
<title>cto&#45;&gt;ceo</title>
<path fill="none" stroke="black" d="M271.39,-232.81C271.39,-224.79 271.39,-215.05 271.39,-206.07"/>
<polygon fill="black" stroke="black" points="274.89,-206.03 271.39,-196.03 267.89,-206.03 274.89,-206.03"/>
</g>
<!-- engineer_1 -->
<g id="node4" class="node">
<title>engineer_1</title>
<ellipse fill="none" stroke="black" cx="127.39" cy="-324" rx="127.28" ry="18"/>
<text text-anchor="middle" x="127.39" y="-320.3" font-family="Times,serif" font-size="14.00">Bella, Software Engineer</text>
</g>
<!-- engineer_1&#45;&gt;cto -->
<g id="edge3" class="edge">
<title>engineer_1&#45;&gt;cto</title>
<path fill="none" stroke="black" d="M160.79,-306.53C181.87,-296.14 209.22,-282.65 231.45,-271.69"/>
<polygon fill="black" stroke="black" points="233.21,-274.73 240.63,-267.17 230.11,-268.45 233.21,-274.73"/>
</g>
<!-- engineer_2 -->
<g id="node5" class="node">
<title>engineer_2</title>
<ellipse fill="none" stroke="black" cx="415.39" cy="-324" rx="142.97" ry="18"/>
<text text-anchor="middle" x="415.39" y="-320.3" font-family="Times,serif" font-size="14.00">Miranda, Software Engineer</text>
</g>
<!-- engineer_2&#45;&gt;cto -->
<g id="edge4" class="edge">
<title>engineer_2&#45;&gt;cto</title>
<path fill="none" stroke="black" d="M381.63,-306.35C360.53,-295.95 333.27,-282.51 311.13,-271.6"/>
<polygon fill="black" stroke="black" points="312.51,-268.37 301.99,-267.09 309.42,-274.65 312.51,-268.37"/>
</g>
<!-- accountant_1&#45;&gt;cfo -->
<g id="edge5" class="edge">
<title>accountant_1&#45;&gt;cfo</title>
<path fill="none" stroke="black" d="M227.9,-73.17C235,-64.33 243.83,-53.33 251.68,-43.55"/>
<polygon fill="black" stroke="black" points="254.45,-45.69 257.98,-35.71 248.99,-41.31 254.45,-45.69"/>
</g>
</g>
</svg>
