<?xml version="1.0" encoding="UTF-8" standalone="no"?>
<!DOCTYPE svg PUBLIC "-//W3C//DTD SVG 1.1//EN"
 "http://www.w3.org/Graphics/SVG/1.1/DTD/svg11.dtd">
<!-- Generated by graphviz version 2.43.0 (0)
 -->
<!-- Title: %3 Pages: 1 -->
<svg width="756pt" height="204pt"
 viewBox="0.00 0.00 755.78 204.00" xmlns="http://www.w3.org/2000/svg" xmlns:xlink="http://www.w3.org/1999/xlink">
<g id="graph0" class="graph" transform="scale(1 1) rotate(0) translate(4 200)">
<title>%3</title>
<polygon fill="white" stroke="transparent" points="-4,4 -4,-200 751.78,-200 751.78,4 -4,4"/>
<!-- ceo -->
<g id="node1" class="node">
<title>ceo</title>
<ellipse fill="none" stroke="black" cx="154.79" cy="-18" rx="61.99" ry="18"/>
<text text-anchor="middle" x="154.79" y="-14.3" font-family="Times,serif" font-size="14.00">Ellen, CEO</text>
</g>
<!-- ceo_2 -->
<g id="node2" class="node">
<title>ceo_2</title>
<ellipse fill="none" stroke="red" cx="316.79" cy="-18" rx="59.29" ry="18"/>
<text text-anchor="middle" x="316.79" y="-14.3" font-family="Times,serif" font-size="14.00" fill="red">Kelly, CEO</text>
</g>
<!-- cfo -->
<g id="node3" class="node">
<title>cfo</title>
<ellipse fill="none" stroke="black" cx="129.79" cy="-105" rx="57.39" ry="18"/>
<text text-anchor="middle" x="129.79" y="-101.3" font-family="Times,serif" font-size="14.00">Jane, CFO</text>
</g>
<!-- cfo&#45;&gt;ceo -->
<g id="edge2" class="edge">
<title>cfo&#45;&gt;ceo</title>
<path fill="none" stroke="black" d="M134.85,-86.8C138.31,-75.05 142.96,-59.24 146.9,-45.84"/>
<polygon fill="black" stroke="black" points="150.28,-46.76 149.74,-36.18 143.56,-44.78 150.28,-46.76"/>
</g>
<!-- cto -->
<g id="node4" class="node">
<title>cto</title>
<ellipse fill="none" stroke="black" cx="316.79" cy="-105" rx="68.49" ry="18"/>
<text text-anchor="middle" x="316.79" y="-101.3" font-family="Times,serif" font-size="14.00">Angela, CTO</text>
</g>
<!-- cto&#45;&gt;ceo -->
<g id="edge1" class="edge">
<title>cto&#45;&gt;ceo</title>
<path fill="none" stroke="black" d="M287.46,-88.61C260.8,-74.62 221.33,-53.91 192.37,-38.72"/>
<polygon fill="black" stroke="black" points="193.85,-35.54 183.37,-33.99 190.6,-41.74 193.85,-35.54"/>
</g>
<!-- cto&#45;&gt;ceo_2 -->
<g id="edge3" class="edge">
<title>cto&#45;&gt;ceo_2</title>
<path fill="none" stroke="red" d="M316.79,-86.8C316.79,-75.16 316.79,-59.55 316.79,-46.24"/>
<polygon fill="red" stroke="red" points="320.29,-46.18 316.79,-36.18 313.29,-46.18 320.29,-46.18"/>
<text text-anchor="middle" x="353.29" y="-57.8" font-family="Times,serif" font-size="14.00" fill="red">Forbidden</text>
</g>
<!-- engineer_1 -->
<g id="node5" class="node">
<title>engineer_1</title>
<ellipse fill="none" stroke="black" cx="316.79" cy="-178" rx="127.28" ry="18"/>
<text text-anchor="middle" x="316.79" y="-174.3" font-family="Times,serif" font-size="14.00">Bella, Software Engineer</text>
</g>
<!-- engineer_1&#45;&gt;cto -->
<g id="edge4" class="edge">
<title>engineer_1&#45;&gt;cto</title>
<path fill="none" stroke="black" d="M316.79,-159.81C316.79,-151.79 316.79,-142.05 316.79,-133.07"/>
<polygon fill="black" stroke="black" points="320.29,-133.03 316.79,-123.03 313.29,-133.03 320.29,-133.03"/>
</g>
<!-- engineer_2 -->
<g id="node6" class="node">
<title>engineer_2</title>
<ellipse fill="none" stroke="black" cx="604.79" cy="-178" rx="142.97" ry="18"/>
<text text-anchor="middle" x="604.79" y="-174.3" font-family="Times,serif" font-size="14.00">Miranda, Software Engineer</text>
</g>
<!-- engineer_2&#45;&gt;cto -->
<g id="edge5" class="edge">
<title>engineer_2&#45;&gt;cto</title>
<path fill="none" stroke="black" d="M542.66,-161.68C492.84,-149.4 423.46,-132.3 374.77,-120.29"/>
<polygon fill="black" stroke="black" points="375.57,-116.89 365.02,-117.89 373.89,-123.68 375.57,-116.89"/>
</g>
<!-- accountant_1 -->
<g id="node7" class="node">
<title>accountant_1</title>
<ellipse fill="none" stroke="black" cx="85.79" cy="-178" rx="85.59" ry="18"/>
<text text-anchor="middle" x="85.79" y="-174.3" font-family="Times,serif" font-size="14.00">Zoe, Accountant</text>
</g>
<!-- accountant_1&#45;&gt;cfo -->
<g id="edge6" class="edge">
<title>accountant_1&#45;&gt;cfo</title>
<path fill="none" stroke="black" d="M96.44,-159.81C101.69,-151.35 108.11,-140.98 113.92,-131.61"/>
<polygon fill="black" stroke="black" points="116.95,-133.37 119.24,-123.03 111,-129.69 116.95,-133.37"/>
</g>
</g>
</svg>
