<?xml version="1.0" encoding="UTF-8" standalone="no"?>
<!DOCTYPE svg PUBLIC "-//W3C//DTD SVG 1.1//EN"
 "http://www.w3.org/Graphics/SVG/1.1/DTD/svg11.dtd">
<!-- Generated by graphviz version 2.43.0 (0)
 -->
<!-- Title: %3 Pages: 1 -->
<svg width="756pt" height="204pt"
 viewBox="0.00 0.00 755.78 204.00" xmlns="http://www.w3.org/2000/svg" xmlns:xlink="http://www.w3.org/1999/xlink">
<g id="graph0" class="graph" transform="scale(1 1) rotate(0) translate(4 200)">
<title>%3</title>
<polygon fill="white" stroke="transparent" points="-4,4 -4,-200 751.78,-200 751.78,4 -4,4"/>
<!-- ceo -->
<g id="node1" class="node">
<title>ceo</title>
<ellipse fill="none" stroke="black" cx="211.79" cy="-18" rx="61.99" ry="18"/>
<text text-anchor="middle" x="211.79" y="-14.3" font-family="Times,serif" font-size="14.00">Ellen, CEO</text>
</g>
<!-- cfo -->
<g id="node2" class="node">
<title>cfo</title>
<ellipse fill="none" stroke="black" cx="140.79" cy="-91" rx="57.39" ry="18"/>
<text text-anchor="middle" x="140.79" y="-87.3" font-family="Times,serif" font-size="14.00">Jane, CFO</text>
</g>
<!-- cfo&#45;&gt;ceo -->
<g id="edge2" class="edge">
<title>cfo&#45;&gt;ceo</title>
<path fill="none" stroke="black" d="M157.26,-73.53C166.49,-64.3 178.16,-52.64 188.33,-42.46"/>
<polygon fill="black" stroke="black" points="190.82,-44.92 195.41,-35.38 185.87,-39.97 190.82,-44.92"/>
</g>
<!-- cto -->
<g id="node3" class="node">
<title>cto</title>
<ellipse fill="none" stroke="black" cx="305.79" cy="-91" rx="68.49" ry="18"/>
<text text-anchor="middle" x="305.79" y="-87.3" font-family="Times,serif" font-size="14.00">Angela, CTO</text>
</g>
<!-- cto&#45;&gt;ceo -->
<g id="edge1" class="edge">
<title>cto&#45;&gt;ceo</title>
<path fill="none" stroke="black" d="M284.46,-73.89C271.72,-64.27 255.35,-51.9 241.38,-41.35"/>
<polygon fill="black" stroke="black" points="243.13,-38.28 233.04,-35.05 238.91,-43.87 243.13,-38.28"/>
</g>
<!-- engineer_1 -->
<g id="node4" class="node">
<title>engineer_1</title>
<ellipse fill="none" stroke="black" cx="316.79" cy="-178" rx="127.28" ry="18"/>
<text text-anchor="middle" x="316.79" y="-174.3" font-family="Times,serif" font-size="14.00">Bella, Software Engineer</text>
</g>
<!-- engineer_1&#45;&gt;cto -->
<g id="edge3" class="edge">
<title>engineer_1&#45;&gt;cto</title>
<path fill="none" stroke="black" d="M314.57,-159.8C313.06,-148.16 311.04,-132.55 309.32,-119.24"/>
<polygon fill="black" stroke="black" points="312.77,-118.64 308.02,-109.18 305.83,-119.54 312.77,-118.64"/>
</g>
<!-- engineer_2 -->
<g id="node5" class="node">
<title>engineer_2</title>
<ellipse fill="none" stroke="black" cx="604.79" cy="-178" rx="142.97" ry="18"/>
<text text-anchor="middle" x="604.79" y="-174.3" font-family="Times,serif" font-size="14.00">Miranda, Software Engineer</text>
</g>
<!-- engineer_2&#45;&gt;cto -->
<g id="edge4" class="edge">
<title>engineer_2&#45;&gt;cto</title>
<path fill="none" stroke="black" d="M549.6,-161.31C495.59,-145.96 413.83,-122.71 360.12,-107.44"/>
<polygon fill="black" stroke="black" points="361,-104.06 350.43,-104.69 359.09,-110.79 361,-104.06"/>
</g>
<!-- accountant_1 -->
<g id="node6" class="node">
<title>accountant_1</title>
<ellipse fill="none" stroke="black" cx="85.79" cy="-178" rx="85.59" ry="18"/>
<text text-anchor="middle" x="85.79" y="-174.3" font-family="Times,serif" font-size="14.00">Zoe, Accountant</text>
</g>
<!-- accountant_1&#45;&gt;cfo -->
<g id="edge5" class="edge">
<title>accountant_1&#45;&gt;cfo</title>
<path fill="none" stroke="gray" stroke-dasharray="1,5" d="M96.92,-159.8C104.8,-147.62 115.5,-131.09 124.36,-117.4"/>
<polygon fill="gray" stroke="gray" points="127.37,-119.18 129.87,-108.89 121.5,-115.38 127.37,-119.18"/>
<text text-anchor="middle" x="150.29" y="-130.8" font-family="Times,serif" font-size="14.00" fill="grey">Removed</text>
</g>
<!-- accountant_1&#45;&gt;cto -->
<g id="edge6" class="edge">
<title>accountant_1&#45;&gt;cto</title>
<path fill="none" stroke="gray" stroke-dasharray="1,5" d="M130.22,-162.51C148.2,-156.45 169.08,-149.16 187.79,-142 213.06,-132.32 240.96,-120.56 263.28,-110.87"/>
<polygon fill="gray" stroke="gray" points="264.71,-114.06 272.48,-106.86 261.91,-107.65 264.71,-114.06"/>
<text text-anchor="middle" x="257.29" y="-130.8" font-family="Times,serif" font-size="14.00" fill="grey">Removed</text>
</g>
</g>
</svg>
