<?xml version="1.0" encoding="UTF-8" standalone="no"?>
<!DOCTYPE svg PUBLIC "-//W3C//DTD SVG 1.1//EN"
 "http://www.w3.org/Graphics/SVG/1.1/DTD/svg11.dtd">
<!-- Generated by graphviz version 2.43.0 (0)
 -->
<!-- Title: %3 Pages: 1 -->
<svg width="566pt" height="188pt"
 viewBox="0.00 0.00 566.38 188.00" xmlns="http://www.w3.org/2000/svg" xmlns:xlink="http://www.w3.org/1999/xlink">
<g id="graph0" class="graph" transform="scale(1 1) rotate(0) translate(4 184)">
<title>%3</title>
<polygon fill="white" stroke="transparent" points="-4,4 -4,-184 562.38,-184 562.38,4 -4,4"/>
<!-- ceo -->
<g id="node1" class="node">
<title>ceo</title>
<ellipse fill="none" stroke="black" cx="199.39" cy="-18" rx="61.99" ry="18"/>
<text text-anchor="middle" x="199.39" y="-14.3" font-family="Times,serif" font-size="14.00">Ellen, CEO</text>
</g>
<!-- cfo -->
<g id="node2" class="node">
<title>cfo</title>
<ellipse fill="none" stroke="black" cx="128.39" cy="-90" rx="57.39" ry="18"/>
<text text-anchor="middle" x="128.39" y="-86.3" font-family="Times,serif" font-size="14.00">Jane, CFO</text>
</g>
<!-- cfo&#45;&gt;ceo -->
<g id="edge2" class="edge">
<title>cfo&#45;&gt;ceo</title>
<path fill="none" stroke="black" d="M145.21,-72.41C154.23,-63.52 165.5,-52.41 175.42,-42.63"/>
<polygon fill="black" stroke="black" points="178.02,-44.98 182.68,-35.47 173.11,-40 178.02,-44.98"/>
</g>
<!-- cto -->
<g id="node3" class="node">
<title>cto</title>
<ellipse fill="none" stroke="black" cx="271.39" cy="-90" rx="68.49" ry="18"/>
<text text-anchor="middle" x="271.39" y="-86.3" font-family="Times,serif" font-size="14.00">Angela, CTO</text>
</g>
<!-- cto&#45;&gt;ceo -->
<g id="edge1" class="edge">
<title>cto&#45;&gt;ceo</title>
<path fill="none" stroke="black" d="M254.33,-72.41C245.18,-63.52 233.75,-52.41 223.69,-42.63"/>
<polygon fill="black" stroke="black" points="225.94,-39.93 216.33,-35.47 221.06,-44.95 225.94,-39.93"/>
</g>
<!-- engineer_1 -->
<g id="node4" class="node">
<title>engineer_1</title>
<ellipse fill="turquoise" stroke="black" cx="127.39" cy="-162" rx="127.28" ry="18"/>
<text text-anchor="middle" x="127.39" y="-158.3" font-family="Times,serif" font-size="14.00">Bella, Software Engineer</text>
</g>
<!-- engineer_1&#45;&gt;cto -->
<g id="edge3" class="edge">
<title>engineer_1&#45;&gt;cto</title>
<path fill="none" stroke="black" d="M161.15,-144.59C182.1,-134.4 209.13,-121.26 231.18,-110.54"/>
<polygon fill="black" stroke="black" points="232.83,-113.63 240.3,-106.11 229.77,-107.34 232.83,-113.63"/>
</g>
<!-- engineer_2 -->
<g id="node5" class="node">
<title>engineer_2</title>
<ellipse fill="none" stroke="black" cx="415.39" cy="-162" rx="142.97" ry="18"/>
<text text-anchor="middle" x="415.39" y="-158.3" font-family="Times,serif" font-size="14.00">Miranda, Software Engineer</text>
</g>
<!-- engineer_2&#45;&gt;cto -->
<g id="edge4" class="edge">
<title>engineer_2&#45;&gt;cto</title>
<path fill="none" stroke="black" d="M381.26,-144.41C360.45,-134.29 333.73,-121.31 311.86,-110.67"/>
<polygon fill="black" stroke="black" points="313.33,-107.5 302.81,-106.27 310.27,-113.79 313.33,-107.5"/>
</g>
</g>
</svg>
