<?xml version="1.0" encoding="UTF-8" standalone="no"?>
<!DOCTYPE svg PUBLIC "-//W3C//DTD SVG 1.1//EN"
 "http://www.w3.org/Graphics/SVG/1.1/DTD/svg11.dtd">
<!-- Generated by graphviz version 2.43.0 (0)
 -->
<!-- Title: %3 Pages: 1 -->
<svg width="276pt" height="131pt"
 viewBox="0.00 0.00 276.44 131.00" xmlns="http://www.w3.org/2000/svg" xmlns:xlink="http://www.w3.org/1999/xlink">
<g id="graph0" class="graph" transform="scale(1 1) rotate(0) translate(4 127)">
<title>%3</title>
<polygon fill="white" stroke="transparent" points="-4,4 -4,-127 272.44,-127 272.44,4 -4,4"/>
<!-- ceo -->
<g id="node1" class="node">
<title>ceo</title>
<ellipse fill="none" stroke="black" cx="128.19" cy="-18" rx="61.99" ry="18"/>
<text text-anchor="middle" x="128.19" y="-14.3" font-family="Times,serif" font-size="14.00">Ellen, CEO</text>
</g>
<!-- cfo -->
<g id="node2" class="node">
<title>cfo</title>
<ellipse fill="none" stroke="black" cx="57.19" cy="-105" rx="57.39" ry="18"/>
<text text-anchor="middle" x="57.19" y="-101.3" font-family="Times,serif" font-size="14.00">Jane, CFO</text>
</g>
<!-- cfo&#45;&gt;ceo -->
<g id="edge2" class="edge">
<title>cfo&#45;&gt;ceo</title>
<path fill="none" stroke="black" d="M71.22,-87.21C81.63,-74.75 95.97,-57.57 107.67,-43.57"/>
<polygon fill="black" stroke="black" points="110.47,-45.68 114.2,-35.76 105.1,-41.19 110.47,-45.68"/>
</g>
<!-- cto -->
<g id="node3" class="node">
<title>cto</title>
<ellipse fill="turquoise" stroke="black" cx="200.19" cy="-105" rx="68.49" ry="18"/>
<text text-anchor="middle" x="200.19" y="-101.3" font-family="Times,serif" font-size="14.00">Angela, CTO</text>
</g>
<!-- cto&#45;&gt;ceo -->
<g id="edge1" class="edge">
<title>cto&#45;&gt;ceo</title>
<path fill="none" stroke="gray" stroke-dasharray="1,5" d="M185.97,-87.21C175.42,-74.75 160.87,-57.57 149.01,-43.57"/>
<polygon fill="gray" stroke="gray" points="151.52,-41.13 142.39,-35.76 146.18,-45.65 151.52,-41.13"/>
<text text-anchor="middle" x="201.69" y="-57.8" font-family="Times,serif" font-size="14.00" fill="grey">Removed</text>
</g>
</g>
</svg>
